<?xml version="1.0" encoding="utf-8"?> 
<!DOCTYPE svg PUBLIC "-//W3C//DTD SVG 1.1//EN" "http://www.w3.org/Graphics/SVG/1.1/DTD/svg11.dtd"> <svg xmlns:xlink="http://www.w3.org/1999/xlink" xmlns="http://www.w3.org/2000/svg" width="490" height="600" viewBox="0 0 490 600">


<symbol>
<!-- === Définition des contours des communes ============================================= -->
<path id="L10000000" d="M19,242 L5,182 L6,177 L9,175 L16,178 L20,177 L28,171 L35,172 L38,173 L46,171 L46,173 L53,174 L58,165 L64,163 L66,167 L69,177 L70,177 L66,164 L67,162 L68,158 L75,155 L76,156 L78,157 L79,158 L79,161 L81,163 L85,164 L88,163 L90,164 L90,165 L89,166 L89,169 L89,171 L90,173 L92,175 L93,176 L95,178 L96,178 L96,180 L97,181 L99,181 L99,182 L102,182 L103,183 L103,185 L106,184 L108,184 L109,183 L112,182 L115,182 L115,185 L113,186 L113,189 L111,191 L110,193 L114,195 L118,197 L119,197 L118,201 L116,204 L114,206 L113,210 L114,212 L118,212 L120,213 L121,215 L125,216 L125,213 L126,211 L126,207 L126,204 L126,201 L129,203 L130,206 L131,207 L133,209 L135,211 L136,211 L138,213 L139,213 L139,216 L138,222 L139,226 L139,226 L141,224 L144,222 L147,222 L148,220 L151,220 L154,219 L156,218 L158,218 L158,221 L160,223 L162,224 L163,227 L167,231 L170,231 L171,232 L175,232 L178,232 L179,232 L183,232 L183,232 L184,233 L182,234 L181,236 L182,238 L184,240 L185,242 L183,243 L181,242 L178,246 L181,248 L183,250 L183,253 L185,255 L186,257 L186,258 L184,259 L181,260 L181,261 L179,259 L179,256 L178,256 L177,257 L177,258 L177,259 L174,259 L168,257 L166,255 L165,254 L162,255 L160,253 L158,253 L155,252 L152,251 L150,251 L141,246 L140,247 L134,249 L132,247 L125,244 L122,244 L120,242 L112,234 L104,242 L102,241 L89,246 L89,247 L77,239 L70,234 L67,234 L65,233 L60,235 L58,234 L57,234 L57,236 L59,237 L58,239 L57,240 L34,242 z" stroke-width="0.25" stroke="#000000"></path>
<path id="L10000002" d="M19,242 L34,242 L57,240 L58,239 L59,237 L57,236 L57,234 L58,234 L60,235 L65,233 L67,234 L70,234 L77,239 L89,247 L89,246 L102,241 L104,242 L112,234 L120,242 L122,244 L125,244 L132,247 L134,249 L140,247 L137,255 L138,259 L134,261 L136,270 L140,271 L136,283 L137,291 L103,281 L103,286 L99,287 L86,282 L67,322 L64,321 L60,315 L27,320 L25,314 L23,305 L22,296 L21,286 L20,277 L21,267 L21,258 L20,249 z" stroke-width="0.25" stroke="#000000"></path>
<path id="L10000006" d="M27,320 L60,315 L64,321 L67,322 L86,282 L99,287 L103,286 L103,281 L137,291 L136,283 L140,271 L136,270 L134,261 L138,259 L137,255 L140,247 L141,246 L150,251 L152,251 L155,252 L158,253 L160,253 L162,255 L165,254 L166,255 L168,257 L174,259 L177,259 L177,258 L177,257 L178,256 L179,256 L179,259 L181,261 L181,262 L184,265 L187,265 L188,267 L187,268 L188,268 L188,269 L189,271 L192,274 L194,276 L196,277 L198,279 L200,278 L202,276 L203,276 L202,278 L204,281 L203,284 L202,286 L200,289 L198,290 L196,294 L194,296 L193,296 L192,295 L190,294 L189,294 L188,295 L186,297 L185,298 L185,301 L185,301 L185,303 L186,304 L188,304 L189,304 L190,305 L192,305 L193,305 L194,306 L195,307 L197,307 L198,310 L198,312 L197,313 L197,316 L195,317 L194,319 L194,321 L194,321 L194,323 L195,324 L195,325 L195,327 L197,329 L198,332 L197,334 L197,336 L196,337 L196,338 L199,340 L202,341 L202,342 L203,345 L203,347 L202,349 L201,349 L199,349 L199,350 L198,351 L198,353 L200,357 L201,359 L204,361 L206,363 L207,363 L209,363 L210,362 L211,362 L210,364 L212,365 L213,366 L214,369 L214,370 L216,371 L218,372 L219,373 L218,374 L218,376 L220,379 L220,379 L219,382 L219,383 L219,384 L220,386 L221,387 L222,389 L223,391 L224,392 L224,393 L224,394 L223,396 L224,398 L225,399 L226,399 L228,399 L229,400 L229,402 L230,403 L231,404 L232,402 L233,402 L235,400 L237,402 L238,402 L240,402 L241,403 L242,406 L240,409 L241,411 L242,412 L243,414 L245,416 L245,416 L248,416 L249,418 L251,418 L253,417 L253,416 L253,415 L255,414 L257,413 L261,414 L261,417 L264,421 L267,420 L269,424 L272,427 L273,429 L274,432 L272,435 L273,438 L275,439 L276,442 L274,443 L275,448 L274,448 L272,447 L269,449 L264,452 L264,453 L266,454 L267,459 L264,460 L262,463 L259,463 L257,459 L255,458 L252,457 L250,459 L250,458 L247,458 L247,455 L244,453 L241,448 L237,447 L234,448 L234,450 L230,451 L229,449 L225,449 L221,450 L221,454 L216,462 L210,461 L209,457 L206,456 L202,451 L201,451 L199,449 L196,448 L195,445 L199,440 L195,429 L189,423 L182,417 L173,410 L170,399 L160,398 L144,409 L136,401 L128,396 L124,392 L113,385 L103,378 L95,372 L85,367 L73,358 L62,351 L53,344 L42,336 L33,327 z" stroke-width="0.25" stroke="#000000"></path>
<path id="L10000003" d="M203,276 L205,272 L206,271 L208,271 L209,268 L211,266 L212,263 L214,261 L215,258 L217,257 L220,258 L224,258 L226,258 L226,261 L228,264 L230,265 L232,265 L234,266 L234,264 L233,263 L235,261 L238,262 L240,261 L246,261 L248,260 L249,260 L250,258 L256,260 L258,260 L260,261 L261,262 L261,262 L262,263 L263,264 L265,269 L269,272 L270,272 L271,276 L274,276 L278,276 L282,274 L283,275 L286,275 L288,274 L288,275 L293,276 L299,277 L306,278 L306,280 L308,278 L308,277 L311,275 L314,274 L315,274 L318,276 L320,273 L321,273 L322,275 L325,276 L326,274 L334,279 L334,280 L336,281 L338,283 L336,285 L335,285 L334,286 L333,288 L336,289 L338,291 L340,290 L341,289 L342,292 L342,293 L342,294 L341,295 L340,295 L338,295 L335,297 L333,296 L333,297 L335,299 L337,302 L339,302 L340,301 L342,298 L343,295 L346,295 L347,295 L348,295 L347,300 L349,299 L350,301 L353,303 L355,305 L354,306 L354,308 L351,310 L347,310 L343,311 L341,313 L341,314 L344,316 L339,319 L337,319 L333,317 L333,316 L326,312 L325,313 L324,313 L320,311 L318,311 L317,312 L316,312 L315,311 L315,310 L313,310 L311,309 L310,310 L303,307 L302,313 L300,312 L299,316 L289,321 L288,323 L285,326 L283,327 L280,326 L276,326 L274,325 L270,322 L270,325 L272,329 L270,329 L271,334 L268,336 L266,335 L263,336 L261,339 L262,341 L261,345 L260,345 L257,343 L252,345 L249,348 L250,349 L251,354 L252,356 L254,356 L254,357 L257,359 L258,358 L259,359 L259,361 L258,361 L257,363 L255,363 L253,365 L254,366 L255,366 L255,367 L253,370 L252,371 L249,376 L245,374 L242,375 L239,379 L241,386 L247,388 L249,393 L247,400 L253,413 L257,413 L255,414 L253,415 L253,416 L253,417 L251,418 L249,418 L248,416 L245,416 L245,416 L243,414 L242,412 L241,411 L240,409 L242,406 L241,403 L240,402 L238,402 L237,402 L235,400 L233,402 L232,402 L231,404 L230,403 L229,402 L229,400 L228,399 L226,399 L225,399 L224,398 L223,396 L224,394 L224,393 L224,392 L223,391 L222,389 L221,387 L220,386 L219,384 L219,383 L219,382 L220,379 L220,379 L218,376 L218,374 L219,373 L218,372 L216,371 L214,370 L214,369 L213,366 L212,365 L210,364 L211,362 L210,362 L209,363 L207,363 L206,363 L204,361 L201,359 L200,357 L198,353 L198,351 L199,350 L199,349 L201,349 L202,349 L203,347 L203,345 L202,342 L202,341 L199,340 L196,338 L196,337 L197,336 L197,334 L198,332 L197,329 L195,327 L195,325 L195,324 L194,323 L194,321 L194,321 L194,319 L195,317 L197,316 L197,313 L198,312 L198,310 L197,307 L195,307 L194,306 L193,305 L192,305 L190,305 L189,304 L188,304 L186,304 L185,303 L185,301 L185,301 L185,298 L186,297 L188,295 L189,294 L190,294 L192,295 L193,296 L194,296 L196,294 L198,290 L200,289 L202,286 L203,284 L204,281 L202,278 z" stroke-width="0.25" stroke="#000000"></path>
<path id="L10000008" d="M183,232 L184,229 L185,227 L186,225 L187,223 L185,221 L186,220 L187,220 L188,220 L187,219 L190,217 L192,217 L194,216 L195,215 L196,215 L198,217 L198,219 L199,220 L201,218 L204,217 L205,217 L206,220 L207,221 L209,219 L210,219 L210,218 L210,217 L212,215 L212,213 L213,212 L215,211 L216,210 L217,210 L219,211 L221,212 L222,211 L224,210 L224,208 L225,207 L226,205 L228,203 L231,201 L236,197 L237,196 L239,195 L240,194 L241,195 L244,192 L249,190 L254,189 L256,188 L259,182 L259,180 L262,178 L263,179 L267,179 L269,178 L271,179 L273,178 L273,177 L274,177 L276,176 L278,176 L279,176 L280,175 L281,175 L282,176 L284,175 L285,175 L286,175 L287,175 L289,173 L292,172 L294,172 L297,173 L298,172 L297,170 L294,167 L302,165 L305,165 L306,164 L313,162 L315,160 L316,158 L321,157 L320,161 L319,162 L319,163 L324,162 L324,161 L331,162 L331,162 L333,162 L336,162 L337,163 L345,161 L349,160 L352,159 L356,160 L358,160 L358,160 L359,159 L359,159 L361,159 L362,160 L364,161 L377,165 L377,166 L376,168 L375,169 L375,170 L375,171 L375,171 L376,178 L376,179 L377,180 L377,181 L378,182 L378,184 L376,186 L377,188 L377,190 L377,195 L378,201 L379,205 L379,209 L379,211 L377,213 L379,214 L379,216 L379,218 L379,220 L380,222 L381,221 L382,222 L379,224 L380,225 L379,228 L380,228 L380,229 L379,231 L379,232 L378,233 L376,236 L376,237 L375,237 L374,237 L375,238 L374,240 L374,241 L375,241 L374,242 L373,243 L372,242 L371,242 L369,241 L369,241 L368,241 L367,241 L366,242 L366,242 L363,243 L360,243 L359,245 L358,246 L357,247 L357,247 L355,247 L353,247 L352,249 L352,250 L351,250 L350,251 L349,252 L347,253 L348,255 L348,256 L349,258 L350,258 L350,258 L349,260 L350,260 L347,264 L345,265 L345,266 L345,267 L343,267 L343,272 L341,272 L340,274 L339,275 L339,278 L336,279 L336,281 L334,280 L334,279 L326,274 L325,276 L322,275 L321,273 L320,273 L318,276 L315,274 L314,274 L311,275 L308,277 L308,278 L306,280 L306,278 L299,277 L293,276 L288,275 L288,274 L286,275 L283,275 L282,274 L278,276 L274,276 L271,276 L270,272 L269,272 L265,269 L263,264 L262,263 L261,262 L261,262 L260,261 L258,260 L256,260 L250,258 L249,260 L248,260 L246,261 L240,261 L238,262 L235,261 L233,263 L234,264 L234,266 L232,265 L230,265 L228,264 L226,261 L226,258 L224,258 L220,258 L217,257 L215,258 L214,261 L212,263 L211,266 L209,268 L208,271 L206,271 L205,272 L203,276 L202,276 L200,278 L198,279 L196,277 L194,276 L192,274 L189,271 L188,269 L188,268 L187,268 L188,267 L187,265 L184,265 L181,262 L181,261 L181,260 L184,259 L186,258 L186,257 L185,255 L183,253 L183,250 L181,248 L178,246 L181,242 L183,243 L185,242 L184,240 L182,238 L181,236 L182,234 L184,233 L183,232 z" stroke-width="0.25" stroke="#000000"></path>
<path id="L10000007" d="M139,213 L140,212 L141,202 L142,200 L142,198 L144,195 L147,191 L150,188 L152,184 L154,181 L155,179 L155,178 L156,176 L156,175 L158,175 L159,175 L160,177 L162,176 L163,178 L164,178 L165,180 L166,182 L167,184 L168,184 L169,185 L170,184 L170,181 L169,180 L170,179 L170,179 L170,178 L170,176 L171,176 L172,177 L173,176 L174,176 L175,176 L176,177 L177,176 L180,176 L179,173 L180,172 L180,172 L180,169 L180,166 L180,165 L184,163 L184,162 L185,162 L186,163 L189,163 L191,162 L193,162 L194,161 L194,160 L197,159 L198,161 L200,161 L203,160 L204,160 L206,158 L210,159 L211,158 L211,155 L213,153 L214,153 L217,156 L218,159 L221,160 L223,160 L229,160 L231,158 L233,159 L234,157 L239,157 L258,178 L261,176 L264,176 L269,173 L272,173 L287,168 L292,169 L298,172 L297,173 L294,172 L292,172 L289,173 L287,175 L286,175 L285,175 L284,175 L282,176 L281,175 L280,175 L279,176 L278,176 L276,176 L274,177 L273,177 L273,178 L271,179 L269,178 L267,179 L263,179 L262,178 L259,180 L259,182 L256,188 L254,189 L249,190 L244,192 L241,195 L240,194 L239,195 L237,196 L236,197 L231,201 L228,203 L226,205 L225,207 L224,208 L224,210 L222,211 L221,212 L219,211 L217,210 L216,210 L215,211 L213,212 L212,213 L212,215 L210,217 L210,218 L210,219 L209,219 L207,221 L206,220 L205,217 L204,217 L201,218 L199,220 L198,219 L198,217 L196,215 L195,215 L194,216 L192,217 L190,217 L187,219 L188,220 L187,220 L186,220 L185,221 L187,223 L186,225 L185,227 L184,229 L183,232 L179,232 L178,232 L175,232 L171,232 L170,231 L167,231 L163,227 L162,224 L160,223 L158,221 L158,218 L156,218 L154,219 L151,220 L148,220 L147,222 L144,222 L141,224 L139,226 L139,226 L138,222 L139,216 z" stroke-width="0.25" stroke="#000000"></path>
<path id="L10000022" d="M122,84 L125,86 L128,88 L131,91 L132,91 L135,90 L139,88 L142,87 L145,85 L149,83 L152,81 L153,78 L155,77 L157,76 L162,79 L165,81 L169,83 L172,84 L176,85 L178,85 L180,84 L180,84 L180,90 L180,91 L180,93 L182,95 L182,97 L184,101 L185,103 L184,107 L186,107 L187,109 L188,113 L190,117 L192,118 L195,122 L197,125 L198,126 L198,128 L202,129 L204,131 L205,131 L206,132 L207,136 L206,135 L206,141 L196,143 L192,143 L190,149 L189,148 L188,151 L189,152 L187,157 L187,159 L186,159 L185,160 L185,162 L185,162 L184,162 L184,163 L180,165 L180,166 L180,169 L180,172 L180,172 L179,173 L180,176 L177,176 L176,177 L175,176 L174,176 L173,176 L172,177 L171,176 L170,176 L170,178 L170,179 L170,179 L169,180 L170,181 L170,184 L169,185 L168,184 L167,184 L166,182 L165,180 L164,178 L163,178 L162,176 L160,177 L159,175 L158,175 L156,175 L156,176 L155,178 L155,179 L154,181 L152,184 L150,188 L147,191 L144,195 L142,198 L142,200 L141,202 L140,212 L139,213 L138,213 L136,211 L135,211 L133,209 L131,207 L130,206 L129,203 L126,201 L126,204 L126,207 L126,211 L125,213 L125,216 L121,215 L120,213 L118,212 L114,212 L113,210 L114,206 L116,204 L118,201 L119,197 L118,197 L114,195 L110,193 L111,191 L113,189 L113,186 L115,185 L115,182 L112,182 L109,183 L108,184 L106,184 L103,185 L103,183 L102,182 L99,182 L99,181 L97,181 L96,180 L96,178 L95,178 L93,176 L92,175 L90,173 L89,171 L89,169 L89,166 L90,165 L90,164 L88,163 L85,164 L81,163 L79,161 L79,158 L78,157 L76,156 L75,155 L72,156 L70,156 L67,154 L65,155 L62,156 L59,154 L56,153 L57,148 L57,142 L58,139 L61,135 L63,132 L65,129 L67,129 L68,126 L71,121 L75,115 L78,113 L79,111 L86,105 L88,106 L90,105 L89,103 L91,102 L90,100 L92,99 L94,95 L95,94 L98,91 L103,88 L104,81 L104,82 L104,83 L105,84 L105,86 L106,87 L107,87 L107,86 L108,86 L108,85 L107,84 L108,83 L107,82 L107,80 L106,78 L114,76 L121,85 z" stroke-width="0.25" stroke="#000000"></path>
<path id="L10000004" d="M180,84 L183,81 L185,79 L186,77 L188,75 L190,74 L192,72 L193,71 L194,70 L198,67 L200,65 L202,63 L203,60 L203,57 L204,55 L205,53 L206,52 L206,51 L208,48 L209,46 L211,45 L214,43 L216,42 L217,42 L219,42 L221,43 L223,44 L226,45 L229,45 L231,44 L235,43 L238,42 L241,39 L242,38 L243,36 L243,34 L243,32 L242,30 L241,27 L241,25 L241,23 L241,21 L241,20 L241,18 L241,16 L241,15 L242,12 L243,12 L243,11 L244,10 L245,9 L246,6 L248,4 L250,3 L252,2 L252,1 L253,0 L254,0 L279,0 L278,1 L278,2 L277,1 L276,0 L275,1 L275,3 L276,4 L276,6 L275,8 L275,9 L276,10 L276,11 L277,12 L278,12 L279,12 L280,13 L282,17 L282,18 L283,19 L285,19 L286,18 L287,17 L289,17 L290,18 L291,19 L291,21 L290,22 L291,23 L292,24 L293,25 L293,27 L293,27 L292,28 L291,29 L291,28 L290,26 L290,26 L288,26 L288,26 L287,27 L288,28 L289,30 L287,32 L286,35 L284,38 L287,40 L288,40 L290,40 L291,39 L292,40 L291,41 L292,44 L292,46 L293,49 L293,50 L294,51 L294,52 L293,51 L294,55 L296,57 L297,58 L298,58 L298,59 L298,61 L297,62 L296,65 L295,66 L292,66 L292,71 L290,72 L287,75 L286,76 L285,77 L283,85 L281,87 L281,88 L280,90 L282,90 L284,91 L286,90 L290,90 L289,93 L289,94 L289,95 L288,98 L286,101 L285,103 L284,105 L285,105 L285,107 L285,108 L286,110 L286,111 L285,117 L288,117 L292,119 L294,119 L295,119 L295,123 L295,124 L295,125 L297,128 L298,132 L300,132 L301,132 L301,134 L301,137 L301,138 L299,140 L301,141 L301,141 L304,141 L303,143 L303,145 L302,146 L302,147 L300,150 L302,151 L303,152 L303,153 L310,156 L309,158 L307,161 L305,162 L305,163 L306,164 L305,165 L302,165 L294,167 L297,170 L298,172 L292,169 L287,168 L272,173 L269,173 L264,176 L261,176 L258,178 L239,157 L234,157 L233,159 L231,158 L229,160 L223,160 L221,160 L218,159 L217,156 L214,153 L213,153 L211,155 L211,158 L210,159 L206,158 L204,160 L203,160 L200,161 L198,161 L197,159 L194,160 L194,161 L193,162 L191,162 L189,163 L186,163 L185,162 L185,162 L185,160 L186,159 L187,159 L187,157 L189,152 L188,151 L189,148 L190,149 L192,143 L196,143 L206,141 L206,135 L207,136 L206,132 L205,131 L204,131 L202,129 L198,128 L198,126 L197,125 L195,122 L192,118 L190,117 L188,113 L187,109 L186,107 L184,107 L185,103 L184,101 L182,97 L182,95 L180,93 L180,91 L180,90 L180,84 z" stroke-width="0.25" stroke="#000000"></path>
<path id="L10000005" d="M144,409 L160,398 L170,399 L173,410 L182,417 L189,423 L195,429 L199,440 L195,445 L196,448 L199,449 L201,451 L202,451 L206,456 L209,457 L210,461 L216,462 L221,454 L221,450 L225,449 L229,449 L230,451 L234,450 L234,448 L237,447 L241,448 L244,453 L247,455 L247,458 L250,458 L250,459 L252,457 L255,458 L257,459 L259,463 L262,463 L264,460 L267,459 L266,454 L264,453 L264,452 L269,449 L272,447 L274,448 L275,448 L274,443 L276,442 L275,439 L273,438 L272,435 L274,432 L273,429 L272,427 L269,424 L267,420 L264,421 L261,417 L261,414 L257,413 L253,413 L247,400 L249,393 L247,388 L241,386 L239,379 L242,375 L245,374 L249,376 L252,371 L253,370 L255,370 L257,370 L259,372 L261,371 L262,369 L262,367 L262,366 L263,366 L266,366 L267,366 L268,365 L267,364 L268,362 L266,361 L267,359 L269,359 L271,359 L272,360 L273,363 L274,364 L276,364 L278,366 L277,368 L278,370 L277,373 L275,375 L273,378 L272,379 L272,382 L273,385 L274,387 L276,388 L278,389 L279,388 L280,386 L282,386 L284,386 L285,384 L287,383 L290,383 L292,384 L294,386 L295,387 L298,387 L299,387 L300,388 L300,389 L301,390 L300,392 L300,394 L302,396 L303,397 L305,398 L306,406 L310,410 L312,415 L313,420 L314,422 L314,423 L315,425 L314,427 L314,428 L318,431 L321,433 L325,435 L325,436 L328,438 L331,439 L330,439 L336,440 L341,449 L340,451 L341,453 L343,457 L340,457 L339,458 L339,458 L336,459 L335,461 L334,464 L334,465 L333,467 L334,468 L333,470 L333,472 L334,474 L336,476 L338,475 L342,479 L344,478 L345,479 L343,479 L343,480 L347,481 L349,480 L352,480 L352,482 L352,482 L353,484 L354,484 L355,483 L356,483 L357,484 L357,484 L355,480 L356,480 L357,482 L358,481 L359,483 L360,483 L361,485 L361,486 L362,486 L362,488 L363,487 L364,488 L360,492 L360,495 L357,492 L356,491 L354,494 L354,495 L354,496 L356,497 L360,499 L360,499 L359,501 L357,502 L356,501 L354,499 L353,499 L352,501 L353,503 L354,505 L353,507 L350,507 L348,507 L346,508 L345,510 L345,512 L343,513 L341,512 L340,511 L338,509 L336,509 L335,507 L334,507 L333,509 L332,512 L332,515 L333,517 L334,518 L335,519 L335,522 L334,524 L333,524 L332,524 L331,525 L330,527 L329,528 L326,529 L324,528 L319,527 L318,528 L317,530 L316,533 L317,536 L317,539 L317,542 L316,545 L315,547 L315,550 L308,548 L299,550 L298,551 L297,552 L295,553 L294,554 L292,554 L289,554 L287,554 L285,556 L284,559 L283,561 L282,564 L282,565 L281,569 L281,570 L280,573 L282,574 L279,574 L276,575 L276,574 L275,575 L272,572 L269,569 L267,566 L264,564 L263,560 L260,557 L257,553 L255,549 L255,545 L254,542 L253,539 L253,536 L254,534 L255,530 L255,525 L253,521 L247,514 L241,506 L232,497 L222,486 L213,476 L203,467 L194,457 L186,451 L178,443 L168,434 L162,428 L156,421 L151,417 L149,414 z" stroke-width="0.25" stroke="#000000"></path>
<path id="L10000009" d="M354,308 L351,310 L347,310 L343,311 L341,313 L341,314 L344,316 L339,319 L337,319 L333,317 L333,316 L326,312 L325,313 L324,313 L320,311 L318,311 L317,312 L316,312 L315,311 L315,310 L313,310 L311,309 L310,310 L303,307 L302,313 L300,312 L299,316 L289,321 L288,323 L285,326 L283,327 L280,326 L276,326 L274,325 L270,322 L270,325 L272,329 L270,329 L271,334 L268,336 L266,335 L263,336 L261,339 L262,341 L261,345 L260,345 L257,343 L252,345 L249,348 L250,349 L251,354 L252,356 L254,356 L254,357 L257,359 L258,358 L259,359 L259,361 L258,361 L257,363 L255,363 L253,365 L254,366 L255,366 L255,367 L253,370 L255,370 L257,370 L259,372 L261,371 L262,369 L262,367 L262,366 L263,366 L266,366 L267,366 L268,365 L267,364 L268,362 L266,361 L267,359 L269,359 L271,359 L272,360 L273,363 L274,364 L276,364 L278,366 L277,368 L278,370 L277,373 L275,375 L273,378 L272,379 L272,382 L273,385 L274,387 L276,388 L278,389 L279,388 L280,386 L282,386 L284,386 L285,384 L287,383 L290,383 L292,384 L294,386 L295,387 L298,387 L299,387 L300,388 L300,389 L301,390 L300,392 L300,394 L302,396 L303,397 L305,398 L306,406 L310,410 L312,415 L313,420 L314,422 L314,423 L315,425 L315,426 L315,427 L316,429 L317,429 L320,431 L322,433 L324,434 L328,433 L332,434 L334,433 L337,434 L339,434 L342,434 L343,433 L344,433 L345,433 L346,432 L348,429 L351,429 L354,429 L356,431 L359,430 L360,428 L359,425 L361,424 L362,423 L363,421 L363,419 L362,417 L362,415 L363,415 L366,413 L366,412 L366,411 L364,408 L365,407 L365,406 L366,404 L367,404 L368,403 L369,402 L371,401 L373,401 L375,401 L375,399 L377,399 L379,399 L378,398 L377,397 L377,396 L378,395 L380,395 L381,396 L382,396 L383,397 L384,398 L385,399 L386,397 L388,397 L390,397 L392,398 L394,399 L395,399 L399,397 L400,397 L403,397 L405,397 L405,396 L405,396 L406,394 L406,389 L408,388 L408,386 L409,386 L411,379 L410,379 L410,377 L409,375 L410,373 L409,374 L409,372 L411,372 L412,371 L413,370 L414,371 L415,371 L416,371 L416,371 L418,371 L419,371 L421,372 L421,371 L422,371 L423,373 L424,372 L425,374 L426,373 L427,374 L428,375 L429,374 L430,374 L432,373 L432,373 L432,372 L432,370 L434,370 L436,369 L435,367 L436,365 L437,366 L439,366 L439,365 L440,366 L441,366 L442,366 L443,368 L444,368 L445,369 L446,370 L448,370 L448,371 L450,367 L452,366 L453,365 L449,350 L448,350 L445,348 L444,347 L443,347 L441,348 L440,348 L439,349 L437,348 L437,348 L431,346 L427,343 L423,341 L421,341 L421,341 L417,343 L416,341 L415,341 L416,338 L411,338 L406,341 L402,343 L400,344 L399,342 L398,342 L397,342 L396,342 L392,336 L392,334 L391,333 L390,331 L386,326 L386,325 L385,325 L380,323 L378,322 L378,321 L376,319 L376,318 L374,318 L373,317 L371,315 L368,310 L367,308 L365,306 L364,309 L357,311 L355,310 z" stroke-width="0.25" stroke="#000000"></path>
<path id="L10000023" d="M315,425 L314,427 L314,428 L318,431 L321,433 L325,435 L325,436 L328,438 L331,439 L330,439 L336,440 L341,449 L340,451 L341,453 L343,457 L340,457 L339,458 L339,458 L336,459 L335,461 L334,464 L334,465 L333,467 L334,468 L333,470 L333,472 L334,474 L336,476 L338,475 L342,479 L344,478 L345,479 L343,479 L343,480 L347,481 L349,480 L352,480 L352,482 L352,482 L353,484 L354,484 L355,483 L356,483 L357,484 L357,484 L355,480 L356,480 L357,482 L358,481 L359,483 L360,483 L361,485 L361,486 L362,486 L362,488 L363,487 L364,488 L360,492 L360,495 L361,497 L361,499 L362,500 L363,498 L364,496 L364,494 L366,493 L368,492 L368,491 L367,490 L364,490 L364,489 L366,485 L365,482 L366,481 L367,482 L368,485 L371,486 L371,488 L373,488 L376,486 L378,486 L380,487 L380,486 L381,485 L382,482 L383,482 L386,485 L386,486 L385,487 L386,488 L389,489 L391,488 L393,489 L394,487 L395,485 L397,485 L399,485 L401,486 L401,486 L401,484 L403,483 L404,483 L404,477 L404,477 L404,469 L405,463 L406,457 L405,451 L403,444 L401,434 L400,426 L399,418 L398,411 L397,409 L395,401 L395,399 L394,399 L392,398 L390,397 L388,397 L386,397 L385,399 L384,398 L383,397 L382,396 L381,396 L380,395 L378,395 L377,396 L377,397 L378,398 L379,399 L377,399 L375,399 L375,401 L373,401 L371,401 L369,402 L368,403 L367,404 L366,404 L365,406 L365,407 L364,408 L366,411 L366,412 L366,413 L363,415 L362,415 L362,417 L363,419 L363,421 L362,423 L361,424 L359,425 L360,428 L359,430 L356,431 L354,429 L351,429 L348,429 L346,432 L345,433 L344,433 L343,433 L342,434 L339,434 L337,434 L334,433 L332,434 L328,433 L324,434 L322,433 L320,431 L317,429 L316,429 L315,427 L315,426 z" stroke-width="0.25" stroke="#000000"></path>
<path id="L10000025" d="M298,58 L299,59 L300,61 L302,61 L304,64 L305,66 L305,67 L306,68 L307,69 L306,71 L306,76 L305,79 L304,83 L304,84 L305,85 L306,86 L306,86 L306,85 L309,86 L310,85 L311,83 L312,82 L312,81 L312,81 L313,81 L314,80 L314,81 L315,82 L316,80 L320,79 L321,79 L322,78 L322,78 L323,78 L323,78 L324,78 L325,79 L327,80 L329,80 L330,81 L332,81 L333,82 L334,83 L336,82 L336,83 L338,83 L342,83 L342,84 L344,85 L344,86 L345,89 L345,90 L346,91 L348,93 L349,95 L351,97 L352,98 L352,100 L353,102 L353,103 L352,104 L351,106 L351,110 L350,111 L350,113 L351,115 L350,115 L351,116 L352,117 L354,118 L355,119 L358,120 L361,121 L365,122 L367,123 L369,124 L372,126 L371,128 L367,130 L368,132 L366,133 L365,135 L364,136 L362,136 L362,137 L362,139 L361,139 L361,141 L360,144 L364,143 L365,145 L366,147 L364,149 L363,151 L365,154 L358,157 L359,159 L358,160 L358,160 L356,160 L352,159 L349,160 L345,161 L337,163 L336,162 L333,162 L331,162 L331,162 L324,161 L324,162 L319,163 L319,162 L320,161 L321,157 L316,158 L315,160 L313,162 L306,164 L305,163 L305,162 L307,161 L309,158 L310,156 L303,153 L303,152 L302,151 L300,150 L302,147 L302,146 L303,145 L303,143 L304,141 L301,141 L301,141 L299,140 L301,138 L301,137 L301,134 L301,132 L300,132 L298,132 L297,128 L295,125 L295,124 L295,123 L295,119 L294,119 L292,119 L288,117 L285,117 L286,111 L286,110 L285,108 L285,107 L285,105 L284,105 L285,103 L286,101 L288,98 L289,95 L289,94 L289,93 L290,90 L286,90 L284,91 L282,90 L280,90 L281,88 L281,87 L283,85 L285,77 L286,76 L287,75 L290,72 L292,71 L292,66 L295,66 L296,65 L297,62 L298,61 L298,59 z" stroke-width="0.25" stroke="#000000"></path>
<path id="L10000024" d="M279,0 L333,0 L333,1 L334,1 L335,2 L337,2 L338,3 L339,3 L338,5 L336,7 L338,8 L338,8 L339,9 L341,9 L342,10 L342,12 L341,13 L341,14 L342,14 L344,15 L345,14 L345,12 L346,11 L347,10 L349,9 L349,11 L349,12 L351,13 L352,14 L353,13 L353,15 L354,16 L354,17 L355,18 L356,19 L355,20 L356,21 L357,21 L357,21 L357,22 L357,24 L357,24 L359,24 L359,25 L358,27 L358,29 L359,30 L359,29 L360,29 L360,28 L362,28 L362,27 L363,27 L364,28 L364,29 L364,30 L365,30 L366,30 L367,30 L368,30 L368,31 L368,32 L369,32 L370,32 L370,35 L372,37 L373,37 L374,36 L375,35 L377,36 L379,37 L380,37 L381,37 L382,37 L383,38 L384,40 L385,40 L385,41 L387,42 L389,42 L390,44 L392,43 L393,44 L394,44 L395,44 L396,44 L396,44 L398,44 L399,45 L401,45 L402,46 L405,47 L406,46 L406,45 L405,43 L406,42 L407,41 L410,41 L410,42 L411,42 L413,42 L414,42 L416,43 L418,44 L419,44 L422,44 L424,43 L425,43 L427,41 L430,42 L433,41 L435,42 L438,42 L439,43 L440,42 L440,43 L441,43 L443,43 L444,42 L445,42 L446,43 L448,44 L448,44 L450,43 L453,42 L455,43 L456,43 L457,44 L458,44 L458,46 L459,49 L461,52 L461,54 L461,55 L461,58 L460,60 L461,63 L461,64 L460,67 L460,69 L460,74 L460,74 L460,74 L459,75 L459,75 L458,76 L457,81 L456,82 L452,86 L448,89 L448,91 L448,96 L449,99 L447,99 L445,99 L444,99 L442,101 L441,103 L437,104 L435,103 L433,102 L433,103 L431,104 L430,104 L429,103 L427,103 L423,102 L419,103 L414,103 L412,106 L410,107 L410,107 L408,109 L407,108 L405,110 L404,112 L404,112 L401,115 L401,118 L403,120 L402,122 L404,125 L405,126 L403,126 L402,126 L400,126 L399,127 L398,127 L397,129 L397,130 L396,130 L395,130 L393,130 L388,131 L381,131 L381,131 L379,131 L379,130 L378,129 L378,129 L375,130 L374,130 L368,132 L367,130 L371,128 L372,126 L369,124 L367,123 L365,122 L361,121 L358,120 L355,119 L354,118 L352,117 L351,116 L350,115 L351,115 L350,113 L350,111 L351,110 L351,106 L352,104 L353,103 L353,102 L352,100 L352,98 L351,97 L349,95 L348,93 L346,91 L345,90 L345,89 L344,86 L344,85 L342,84 L342,83 L338,83 L336,83 L336,82 L334,83 L333,82 L332,81 L330,81 L329,80 L327,80 L325,79 L324,78 L323,78 L323,78 L322,78 L322,78 L321,79 L320,79 L316,80 L315,82 L314,81 L314,80 L313,81 L312,81 L312,81 L312,82 L311,83 L310,85 L309,86 L306,85 L306,86 L306,86 L305,85 L304,84 L304,83 L305,79 L306,76 L306,71 L307,69 L306,68 L305,67 L305,66 L304,64 L302,61 L300,61 L299,59 L298,58 L297,58 L296,57 L294,55 L293,51 L294,52 L294,51 L293,50 L293,49 L292,46 L292,44 L291,41 L292,40 L291,39 L290,40 L288,40 L287,40 L284,38 L286,35 L287,32 L289,30 L288,28 L287,27 L288,26 L288,26 L290,26 L290,26 L291,28 L291,29 L292,28 L293,27 L293,27 L293,25 L292,24 L291,23 L290,22 L291,21 L291,19 L290,18 L289,17 L287,17 L286,18 L285,19 L283,19 L282,18 L282,17 L280,13 L279,12 L278,12 L277,12 L276,11 L276,10 L275,9 L275,8 L276,6 L276,4 L275,3 L275,1 L276,0 L277,1 L278,2 L278,1 z" stroke-width="0.25" stroke="#000000"></path>
<path id="L10000095" d="M333,0 L491,0 L491,1 L489,2 L489,4 L490,7 L490,7 L490,8 L490,9 L490,10 L489,12 L488,12 L487,13 L487,14 L487,15 L485,18 L483,20 L482,23 L482,25 L482,27 L481,29 L481,30 L481,31 L481,32 L481,35 L480,38 L479,41 L475,40 L474,40 L472,43 L470,47 L467,50 L466,50 L465,52 L464,54 L464,54 L461,54 L461,52 L459,49 L458,46 L458,44 L457,44 L456,43 L455,43 L453,42 L450,43 L448,44 L448,44 L446,43 L445,42 L444,42 L443,43 L441,43 L440,43 L440,42 L439,43 L438,42 L435,42 L433,41 L430,42 L427,41 L425,43 L424,43 L422,44 L419,44 L418,44 L416,43 L414,42 L413,42 L411,42 L410,42 L410,41 L407,41 L406,42 L405,43 L406,45 L406,46 L405,47 L402,46 L401,45 L399,45 L398,44 L396,44 L396,44 L395,44 L394,44 L393,44 L392,43 L390,44 L389,42 L387,42 L385,41 L385,40 L384,40 L383,38 L382,37 L381,37 L380,37 L379,37 L377,36 L375,35 L374,36 L373,37 L372,37 L370,35 L370,32 L369,32 L368,32 L368,31 L368,30 L367,30 L366,30 L365,30 L364,30 L364,29 L364,28 L363,27 L362,27 L362,28 L360,28 L360,29 L359,29 L359,30 L358,29 L358,27 L359,25 L359,24 L357,24 L357,24 L357,22 L357,21 L357,21 L356,21 L355,20 L356,19 L355,18 L354,17 L354,16 L353,15 L353,13 L352,14 L351,13 L349,12 L349,11 L349,9 L347,10 L346,11 L345,12 L345,14 L344,15 L342,14 L341,14 L341,13 L342,12 L342,10 L341,9 L339,9 L338,8 L338,8 L336,7 L338,5 L339,3 L338,3 L337,2 L335,2 L334,1 L333,1 z" stroke-width="0.25" stroke="#000000"></path>
<path id="L10000096" d="M461,54 L464,54 L464,54 L465,52 L466,50 L467,50 L470,47 L472,43 L474,40 L475,40 L479,41 L480,38 L481,35 L481,32 L481,31 L481,30 L481,29 L482,27 L482,25 L482,23 L483,20 L485,18 L487,15 L487,14 L487,13 L488,12 L489,12 L490,10 L490,9 L490,8 L490,7 L490,7 L489,4 L489,2 L491,1 L491,90 L489,90 L485,91 L479,91 L477,91 L473,90 L467,89 L462,88 L456,87 L454,86 L452,86 L456,82 L457,81 L458,76 L459,75 L459,75 L460,74 L460,74 L460,74 L460,69 L460,67 L461,64 L461,63 L460,60 L461,58 L461,55 z" stroke-width="0.25" stroke="#000000"></path>
<path id="L10000028" d="M122,84 L122,83 L120,79 L117,74 L118,73 L118,73 L124,67 L129,62 L135,57 L139,52 L144,44 L148,36 L153,26 L157,17 L165,16 L168,15 L173,15 L173,15 L168,15 L167,15 L157,15 L156,8 L156,0 L254,0 L253,0 L252,1 L252,2 L250,3 L248,4 L246,6 L245,9 L244,10 L243,11 L243,12 L242,12 L241,15 L241,16 L241,18 L241,20 L241,21 L241,23 L241,25 L241,27 L242,30 L243,32 L243,34 L243,36 L242,38 L241,39 L238,42 L235,43 L231,44 L229,45 L226,45 L223,44 L221,43 L219,42 L217,42 L216,42 L214,43 L211,45 L209,46 L208,48 L206,51 L206,52 L205,53 L204,55 L203,57 L203,60 L202,63 L200,65 L198,67 L194,70 L193,71 L192,72 L190,74 L188,75 L186,77 L185,79 L183,81 L180,84 L178,85 L176,85 L172,84 L169,83 L165,81 L162,79 L157,76 L155,77 L153,78 L152,81 L149,83 L145,85 L142,87 L139,88 L135,90 L132,91 L131,91 L128,88 L125,86 z" stroke-width="0.25" stroke="#000000"></path>
<path id="L10000001" d="M382,222 L384,222 L385,222 L385,221 L386,219 L387,218 L388,218 L389,218 L389,217 L391,216 L391,216 L392,215 L393,215 L393,215 L393,214 L393,214 L394,214 L393,212 L394,211 L395,209 L397,209 L397,208 L396,207 L395,206 L395,205 L396,205 L396,204 L397,204 L398,204 L398,203 L398,203 L398,201 L399,201 L399,201 L400,200 L401,201 L402,201 L403,202 L404,202 L405,201 L406,202 L406,200 L407,200 L407,201 L408,201 L408,202 L408,202 L409,203 L408,206 L409,209 L409,209 L409,211 L410,212 L410,215 L410,216 L410,217 L410,218 L409,218 L408,220 L409,223 L409,224 L409,225 L410,227 L412,229 L414,229 L416,229 L417,230 L420,230 L421,230 L423,231 L424,231 L425,231 L426,231 L426,231 L428,232 L429,232 L431,231 L432,229 L433,228 L435,226 L437,225 L436,224 L438,222 L439,221 L440,220 L441,219 L441,218 L442,217 L444,216 L445,213 L445,213 L445,212 L447,211 L449,210 L450,209 L452,208 L455,208 L456,208 L457,207 L459,207 L461,208 L462,208 L463,209 L465,209 L467,209 L469,210 L471,212 L473,213 L474,212 L476,212 L478,213 L480,213 L481,213 L483,215 L483,218 L484,220 L486,220 L487,219 L489,219 L491,219 L491,354 L490,354 L489,353 L488,353 L487,354 L487,355 L487,357 L486,358 L485,359 L484,359 L483,360 L483,361 L483,363 L482,364 L480,364 L479,364 L477,363 L476,363 L475,364 L477,365 L477,366 L476,368 L475,369 L474,368 L472,369 L469,369 L467,369 L466,369 L464,369 L463,371 L463,372 L462,373 L461,373 L456,371 L455,371 L455,370 L453,371 L452,371 L452,371 L451,372 L448,371 L450,367 L452,366 L453,365 L449,350 L448,350 L445,348 L444,347 L443,347 L441,348 L440,348 L439,349 L437,348 L437,348 L431,346 L427,343 L423,341 L421,341 L421,341 L417,343 L416,341 L415,341 L416,338 L411,338 L406,341 L402,343 L400,344 L399,342 L398,342 L397,342 L396,342 L392,336 L392,334 L391,333 L390,331 L386,326 L386,325 L385,325 L380,323 L378,322 L378,321 L376,319 L376,318 L374,318 L373,317 L371,315 L368,310 L367,308 L365,306 L364,309 L357,311 L355,310 L354,308 L354,306 L355,305 L353,303 L350,301 L349,299 L347,300 L348,295 L347,295 L346,295 L343,295 L342,298 L340,301 L339,302 L337,302 L335,299 L333,297 L333,296 L335,297 L338,295 L340,295 L341,295 L342,294 L342,293 L342,292 L341,289 L340,290 L338,291 L336,289 L333,288 L334,286 L335,285 L336,285 L338,283 L336,281 L336,279 L339,278 L339,275 L340,274 L341,272 L343,272 L343,267 L345,267 L345,266 L345,265 L347,264 L350,260 L349,260 L350,258 L350,258 L349,258 L348,256 L348,255 L347,253 L349,252 L350,251 L351,250 L352,250 L352,249 L353,247 L355,247 L357,247 L357,247 L358,246 L359,245 L360,243 L363,243 L366,242 L366,242 L367,241 L368,241 L369,241 L369,241 L371,242 L372,242 L373,243 L374,242 L375,241 L374,241 L374,240 L375,238 L374,237 L375,237 L376,237 L376,236 L378,233 L379,232 L379,231 L380,229 L380,228 L379,228 L380,225 L379,224 z" stroke-width="0.25" stroke="#000000"></path>
<path id="L10000034" d="M395,399 L399,397 L400,397 L403,397 L405,397 L405,396 L405,396 L406,394 L406,389 L408,388 L408,386 L409,386 L411,379 L410,379 L410,377 L409,375 L410,373 L409,374 L409,372 L411,372 L412,371 L413,370 L414,371 L415,371 L416,371 L416,371 L418,371 L419,371 L421,372 L421,371 L422,371 L423,373 L424,372 L425,374 L426,373 L427,374 L428,375 L429,374 L430,374 L432,373 L432,373 L432,372 L432,370 L434,370 L436,369 L435,367 L436,365 L437,366 L439,366 L439,365 L440,366 L441,366 L442,366 L443,368 L444,368 L445,369 L446,370 L448,370 L448,371 L451,372 L452,371 L452,371 L453,371 L455,370 L455,371 L456,371 L461,373 L462,373 L463,372 L463,371 L464,369 L466,369 L467,369 L469,369 L472,369 L474,368 L475,369 L476,368 L477,366 L477,365 L475,364 L476,363 L477,363 L479,364 L480,364 L482,364 L483,363 L483,361 L483,360 L484,359 L485,359 L486,358 L487,357 L487,355 L487,354 L488,353 L489,353 L490,354 L491,354 L491,459 L487,460 L485,461 L483,461 L482,460 L481,460 L480,459 L477,460 L477,461 L476,461 L475,462 L474,461 L473,462 L473,463 L472,463 L471,463 L470,464 L469,464 L468,464 L468,464 L467,464 L466,464 L466,464 L464,466 L463,466 L461,467 L460,468 L459,468 L459,468 L459,469 L458,470 L458,471 L457,472 L453,472 L452,471 L452,471 L451,470 L450,470 L447,470 L446,470 L446,472 L445,472 L444,474 L443,475 L444,474 L443,473 L442,473 L440,475 L438,474 L437,474 L435,474 L433,474 L433,475 L432,475 L430,475 L429,475 L429,478 L425,479 L425,481 L424,482 L423,482 L422,480 L421,481 L420,483 L420,484 L418,484 L417,483 L416,482 L414,483 L414,484 L414,486 L414,486 L412,486 L411,486 L409,487 L407,487 L406,486 L405,485 L403,485 L403,485 L401,486 L401,484 L403,483 L404,483 L404,477 L404,477 L404,469 L405,463 L406,457 L405,451 L403,444 L401,434 L400,426 L399,418 L398,411 L397,409 L395,401 z" stroke-width="0.25" stroke="#000000"></path>
<path id="L10000027" d="M368,132 L374,130 L375,130 L378,129 L378,129 L379,130 L379,131 L381,131 L381,131 L388,131 L393,130 L395,130 L396,130 L397,130 L397,129 L398,127 L399,127 L400,126 L402,126 L403,126 L405,126 L404,125 L402,122 L403,120 L401,118 L401,115 L404,112 L404,112 L405,110 L407,108 L408,109 L410,107 L410,107 L412,106 L414,103 L419,103 L423,102 L427,103 L429,103 L430,104 L431,104 L433,103 L433,102 L435,103 L437,104 L441,103 L442,101 L444,99 L445,99 L447,99 L449,99 L448,96 L448,91 L448,89 L452,86 L454,86 L456,87 L462,88 L467,89 L473,90 L477,91 L479,91 L485,91 L489,90 L491,90 L491,219 L489,219 L487,219 L486,220 L484,220 L483,218 L483,215 L481,213 L480,213 L478,213 L476,212 L474,212 L473,213 L471,212 L469,210 L467,209 L465,209 L463,209 L462,208 L461,208 L459,207 L457,207 L456,208 L455,208 L452,208 L450,209 L449,210 L447,211 L445,212 L445,213 L445,213 L444,216 L442,217 L441,218 L441,219 L440,220 L439,221 L438,222 L436,224 L437,225 L435,226 L433,228 L432,229 L431,231 L429,232 L428,232 L426,231 L426,231 L425,231 L424,231 L423,231 L421,230 L420,230 L417,230 L416,229 L414,229 L412,229 L410,227 L409,225 L409,224 L409,223 L408,220 L409,218 L410,218 L410,217 L410,216 L410,215 L410,212 L409,211 L409,209 L409,209 L408,206 L409,203 L408,202 L408,202 L408,201 L407,201 L407,200 L406,200 L406,202 L405,201 L404,202 L403,202 L402,201 L401,201 L400,200 L399,201 L399,201 L398,201 L398,203 L398,203 L398,204 L397,204 L396,204 L396,205 L395,205 L395,206 L396,207 L397,208 L397,209 L395,209 L394,211 L393,212 L394,214 L393,214 L393,214 L393,215 L393,215 L392,215 L391,216 L391,216 L389,217 L389,218 L388,218 L387,218 L386,219 L385,221 L385,222 L384,222 L382,222 L381,221 L380,222 L379,220 L379,218 L379,216 L379,214 L377,213 L379,211 L379,209 L379,205 L378,201 L377,195 L377,190 L377,188 L376,186 L378,184 L378,182 L377,181 L377,180 L376,179 L376,178 L375,171 L375,171 L375,170 L375,169 L376,168 L377,166 L377,165 L364,161 L362,160 L361,159 L359,159 L359,159 L358,157 L365,154 L363,151 L364,149 L366,147 L365,145 L364,143 L360,144 L361,141 L361,139 L362,139 L362,137 L362,136 L364,136 L365,135 L366,133 z" stroke-width="0.25" stroke="#000000"></path>
<path id="L10000035" d="M315,550 L315,547 L316,545 L317,542 L317,539 L317,536 L316,533 L317,530 L318,528 L319,527 L324,528 L326,529 L329,528 L330,527 L331,525 L332,524 L333,524 L334,524 L335,522 L335,519 L334,518 L333,517 L332,515 L332,512 L333,509 L334,507 L335,507 L336,509 L338,509 L340,511 L341,512 L343,513 L345,512 L345,510 L346,508 L348,507 L350,507 L353,507 L354,505 L353,503 L352,501 L353,499 L354,499 L356,501 L357,502 L359,501 L360,499 L360,499 L356,497 L354,496 L354,495 L354,494 L356,491 L357,492 L360,495 L361,497 L361,499 L362,500 L363,498 L364,496 L364,494 L366,493 L368,492 L368,491 L367,490 L364,490 L364,489 L366,485 L365,482 L366,481 L367,482 L368,485 L371,486 L371,488 L373,488 L376,486 L378,486 L380,487 L380,486 L381,485 L382,482 L383,482 L386,485 L386,486 L385,487 L386,488 L389,489 L391,488 L393,489 L394,487 L395,485 L397,485 L399,485 L401,486 L401,486 L403,485 L403,485 L405,485 L406,486 L407,487 L409,487 L411,486 L412,486 L414,486 L414,486 L414,484 L414,483 L416,482 L417,483 L418,484 L420,484 L420,483 L421,483 L422,484 L423,486 L424,486 L424,487 L424,489 L426,491 L427,492 L426,493 L426,495 L426,499 L426,503 L427,505 L427,507 L427,507 L427,510 L428,512 L429,512 L429,513 L429,513 L428,516 L427,517 L426,519 L423,521 L420,522 L423,522 L425,523 L424,525 L425,529 L424,531 L426,532 L426,533 L425,533 L424,535 L424,536 L422,536 L422,535 L419,535 L419,535 L417,535 L415,535 L414,536 L414,537 L412,537 L410,538 L409,538 L408,538 L407,540 L405,542 L405,542 L407,544 L408,546 L406,547 L403,549 L399,552 L399,552 L398,553 L394,554 L392,555 L391,554 L390,554 L389,554 L386,553 L384,553 L383,554 L378,555 L375,555 L372,557 L371,556 L369,556 L367,556 L366,555 L364,556 L361,556 L359,556 L357,554 L354,552 L351,553 L350,555 L348,557 L347,557 L346,558 L345,559 L344,560 L342,561 L341,562 L339,562 L336,561 L337,560 L332,558 L327,557 L321,555 L318,553 L315,553 z" stroke-width="0.25" stroke="#000000"></path>
<path id="L10000039" d="M420,483 L421,481 L422,480 L423,482 L424,482 L425,481 L425,479 L429,478 L429,475 L430,475 L432,475 L433,475 L433,474 L435,474 L437,474 L438,474 L440,475 L442,473 L443,473 L444,474 L443,475 L444,474 L445,472 L446,472 L446,470 L447,470 L450,470 L451,470 L452,471 L452,471 L453,472 L457,472 L458,471 L458,470 L459,469 L459,468 L459,468 L460,468 L461,467 L463,466 L464,466 L466,464 L466,464 L467,464 L468,464 L468,464 L469,464 L470,464 L471,463 L472,463 L473,463 L473,462 L474,461 L475,462 L476,461 L477,461 L477,460 L480,459 L481,460 L482,460 L483,461 L485,461 L487,460 L491,459 L491,501 L490,501 L487,501 L485,502 L483,503 L482,503 L479,505 L480,506 L478,507 L479,510 L475,511 L475,511 L471,512 L466,513 L462,514 L460,515 L459,516 L456,517 L452,519 L448,520 L447,516 L446,514 L445,512 L444,511 L443,512 L442,511 L442,512 L438,513 L436,515 L435,516 L434,515 L434,514 L433,515 L431,514 L430,515 L429,513 L429,513 L429,512 L428,512 L427,510 L427,507 L427,507 L427,505 L426,503 L426,499 L426,495 L426,493 L427,492 L426,491 L424,489 L424,487 L424,486 L423,486 L422,484 L421,483 z" stroke-width="0.25" stroke="#000000"></path>
<path id="L10000040" d="M429,513 L430,515 L431,514 L433,515 L434,514 L434,515 L435,516 L436,515 L438,513 L442,512 L442,511 L443,512 L444,511 L445,512 L446,514 L447,516 L448,520 L452,519 L456,517 L459,516 L460,515 L462,514 L466,513 L471,512 L475,511 L475,511 L479,510 L478,507 L480,506 L479,505 L482,503 L483,503 L485,502 L487,501 L490,501 L491,501 L491,529 L491,536 L491,581 L490,581 L489,581 L487,581 L484,581 L483,580 L482,580 L481,580 L476,579 L472,577 L470,576 L470,576 L467,576 L467,576 L464,575 L463,575 L462,575 L460,576 L456,577 L453,579 L452,578 L452,577 L449,576 L448,577 L447,578 L447,580 L447,581 L446,584 L443,585 L442,585 L442,585 L441,586 L440,586 L439,584 L438,584 L437,585 L436,584 L436,585 L435,583 L436,583 L436,582 L435,578 L435,574 L432,571 L428,567 L427,566 L424,561 L423,557 L422,557 L421,555 L418,556 L415,557 L413,558 L412,556 L410,555 L411,554 L410,554 L410,553 L406,553 L403,553 L399,552 L399,552 L403,549 L406,547 L408,546 L407,544 L405,542 L405,542 L407,540 L408,538 L409,538 L410,538 L412,537 L414,537 L414,536 L415,535 L417,535 L419,535 L419,535 L422,535 L422,536 L424,536 L424,535 L425,533 L426,533 L426,532 L424,531 L425,529 L424,525 L425,523 L423,522 L420,522 L423,521 L426,519 L427,517 L428,516 z" stroke-width="0.25" stroke="#000000"></path>
<path id="L10000097" d="M326,600 L324,596 L321,592 L317,587 L314,583 L312,579 L310,577 L308,574 L306,571 L303,569 L301,567 L298,566 L298,566 L299,565 L300,564 L302,564 L304,566 L307,569 L310,571 L312,571 L314,571 L316,570 L318,568 L318,567 L317,564 L317,561 L316,559 L315,556 L316,554 L316,553 L315,553 L315,550 L315,553 L318,553 L321,555 L327,557 L332,558 L337,560 L336,561 L339,562 L341,562 L342,561 L344,560 L345,559 L346,558 L347,557 L348,557 L350,555 L351,553 L354,552 L357,554 L359,556 L361,556 L364,556 L366,555 L367,556 L369,556 L371,556 L372,557 L375,555 L378,555 L383,554 L384,553 L386,553 L389,554 L390,554 L391,554 L392,555 L390,557 L387,558 L381,563 L380,562 L379,563 L379,564 L380,565 L380,564 L383,564 L383,565 L382,567 L381,568 L381,569 L378,569 L378,570 L379,570 L378,574 L378,576 L376,579 L375,579 L374,581 L372,584 L372,586 L371,589 L371,590 L370,592 L370,593 L368,594 L367,595 L366,595 L365,597 L365,598 L364,600 z" stroke-width="0.25" stroke="#000000"></path>
<path id="L10000038" d="M315,550 L315,551 L315,553 L312,552 L312,554 L312,556 L313,557 L313,560 L314,562 L316,564 L317,566 L317,567 L315,569 L314,570 L314,570 L314,570 L310,568 L309,568 L307,568 L306,566 L306,566 L307,567 L308,566 L307,565 L305,566 L304,565 L303,564 L303,564 L304,565 L305,564 L303,563 L303,563 L303,563 L303,562 L302,562 L299,562 L298,562 L299,563 L298,564 L298,563 L296,564 L295,565 L294,565 L293,568 L292,569 L292,569 L292,568 L291,567 L289,568 L287,568 L285,569 L283,569 L281,569 L282,565 L282,564 L283,561 L284,559 L285,556 L287,554 L289,554 L292,554 L294,554 L295,553 L297,552 L298,551 L299,550 L308,548 z" stroke-width="0.25" stroke="#000000"></path>
<path id="L10000036" d="M364,600 L365,598 L365,597 L366,595 L367,595 L368,594 L370,593 L370,592 L371,590 L371,589 L372,586 L372,584 L374,581 L375,579 L376,579 L378,576 L378,574 L379,570 L378,570 L378,569 L381,569 L381,568 L382,567 L383,565 L383,564 L380,564 L380,565 L379,564 L379,563 L380,562 L381,563 L387,558 L390,557 L392,555 L394,554 L398,553 L399,552 L403,553 L406,553 L410,553 L410,554 L411,554 L410,555 L412,556 L413,558 L415,557 L418,556 L421,555 L422,557 L423,557 L424,561 L427,566 L428,567 L432,571 L435,574 L435,578 L436,582 L436,583 L435,583 L436,585 L436,584 L437,585 L438,584 L439,584 L440,586 L439,586 L438,587 L438,588 L438,590 L439,590 L438,591 L438,591 L437,591 L437,592 L435,594 L435,594 L432,597 L432,599 L430,599 L430,600 z" stroke-width="0.25" stroke="#000000"></path>
<path id="L10000029" d="M440,586 L441,586 L442,585 L442,585 L443,585 L446,584 L447,581 L447,580 L447,578 L448,577 L449,576 L452,577 L452,578 L453,579 L456,577 L460,576 L462,575 L463,575 L464,575 L467,576 L467,576 L470,576 L470,576 L472,577 L476,579 L481,580 L482,580 L483,580 L484,581 L487,581 L489,581 L490,581 L491,581 L491,600 L430,600 L430,599 L432,599 L432,597 L435,594 L435,594 L437,592 L437,591 L438,591 L438,591 L439,590 L438,590 L438,588 L438,587 L439,586 z" stroke-width="0.25" stroke="#000000"></path>
<path id="L10000033" d="M491,529 L490,529 L488,530 L488,529 L487,529 L485,530 L484,531 L485,532 L486,533 L487,533 L488,534 L489,535 L490,536 L490,535 L490,536 L491,536 z" stroke-width="0.25" stroke="#000000"></path>
<path id="L10000092" d="M0,158 L0,53 L3,55 L4,57 L12,76 L13,76 L14,76 L15,78 L15,79 L15,79 L14,80 L17,87 L9,92 L9,93 L9,94 L9,95 L9,96 L11,96 L11,99 L12,100 L13,102 L15,103 L16,102 L18,103 L18,106 L17,107 L17,108 L17,108 L17,109 L15,110 L15,112 L15,114 L14,115 L13,115 L12,121 L13,122 L13,123 L12,124 L15,126 L16,127 L16,129 L14,131 L14,132 L14,135 L14,136 L13,137 L11,139 L10,141 L9,142 L9,145 L12,146 L12,149 L12,151 L12,151 L13,154 L14,157 L15,158 L15,158 L16,160 L16,162 L17,163 L17,164 L17,166 L17,167 L16,168 L15,170 L14,170 L12,169 L10,168 L9,167 L7,166 L5,164 L3,162 L2,160 L0,158 L0,53 z" stroke-width="0.25" stroke="#000000"></path>
<!-- === Définition des symboles ========================================================== -->
<!-- === Symbole EGLISE === -->
<g id="symb00005">
<line x1="0" y1="-2" x2="0" y2="-8" style="stroke:#000000;stroke-width:1" />
<line x1="-3" y1="-5" x2="3" y2="-5" style="stroke:#000000;stroke-width:1" />
<circle cx="0" cy="0" r="2" stroke="#000000" stroke-width="0.5" fill="grey" fill-opacity="0" />
</g>
<!-- === Fin des définition des symboles ================================================== -->
</symbol>
<defs xmlns:xlink="http://www.w3.org/1999/xlink" xmlns:svg="http://www.w3.org/2000/svg">
<!-- === Définition des ombres et gradients =============================================== -->
<filter id="filtreombre" filterUnits="objectBoundingBox" x="-50%" y="-50%" width="200%" height="200%">
<feGaussianBlur in="SourceAlpha" stdDeviation="2" result="BlurAlpha" />
<feOffset in="BlurAlpha" dx="2" dy="2" result="OffsetBlurAlpha" />
<feMerge><feMergeNode in="OffsetBlurAlpha" />
<feMergeNode in="SourceGraphic" /></feMerge>
</filter>
</defs>
<!-- === Dessin =========================================================================== -->

<!-- Rectangle global -->
<rect x="0" y="0" width="490" height="600" style="fill:#DDDDDD;stroke-width:0.5;stroke:#DDDDDD" />

<g>
<use style="fill:#FFFFFF" xlink:href="#L10000025" />
<use style="fill:#FFFFFF" xlink:href="#L10000024" />
<use style="fill:#FFFFFF" xlink:href="#L10000095" />
<use style="fill:#FFFFFF" xlink:href="#L10000096" />
<use style="fill:#FFFFFF" xlink:href="#L10000034" />
<use style="fill:#FFFFFF" xlink:href="#L10000027" />
<use style="fill:#FFFFFF" xlink:href="#L10000039" />
<use style="fill:#FFFFFF" xlink:href="#L10000040" />
<use style="fill:#FFFFFF" xlink:href="#L10000097" />
<use style="fill:#FFFFFF" xlink:href="#L10000036" />
<use style="fill:#FFFFFF" xlink:href="#L10000029" />
<use style="fill:#FFFFFF" xlink:href="#L10000033" />
<use style="fill:#FFFFFF" xlink:href="#L10000023" />
<use style="fill:#FFFFFF" xlink:href="#L10000092" />
</g>




<g filter="url(#filtreombre)" xmlns:xlink="http://www.w3.org/1999/xlink" xmlns:svg="http://www.w3.org/2000/svg">
<use style="fill:#BBFFFF" xlink:href="#L10000001" />
</g>
<g filter="url(#filtreombre)" xmlns:xlink="http://www.w3.org/1999/xlink" xmlns:svg="http://www.w3.org/2000/svg">
<use style="fill:#FF93DD" xlink:href="#L10000009" />
</g>
<g filter="url(#filtreombre)" xmlns:xlink="http://www.w3.org/1999/xlink" xmlns:svg="http://www.w3.org/2000/svg">
<use style="fill:#8FC0D1" xlink:href="#L10000003" />
</g>
<g filter="url(#filtreombre)" xmlns:xlink="http://www.w3.org/1999/xlink" xmlns:svg="http://www.w3.org/2000/svg">
<use style="fill:#7EFA91" xlink:href="#L10000008" />
</g>
<g filter="url(#filtreombre)" xmlns:xlink="http://www.w3.org/1999/xlink" xmlns:svg="http://www.w3.org/2000/svg">
<use style="fill:#BD4E76" xlink:href="#L10000038" />
</g>
<g filter="url(#filtreombre)" xmlns:xlink="http://www.w3.org/1999/xlink" xmlns:svg="http://www.w3.org/2000/svg">
<use style="fill:#DBA0FF" xlink:href="#L10000035" />
</g>
<g filter="url(#filtreombre)" xmlns:xlink="http://www.w3.org/1999/xlink" xmlns:svg="http://www.w3.org/2000/svg">
<use style="fill:#F98080" xlink:href="#L10000005" />
</g>
<g filter="url(#filtreombre)" xmlns:xlink="http://www.w3.org/1999/xlink" xmlns:svg="http://www.w3.org/2000/svg">
<use style="fill:#FDA67B" xlink:href="#L10000006" />
</g>
<g filter="url(#filtreombre)" xmlns:xlink="http://www.w3.org/1999/xlink" xmlns:svg="http://www.w3.org/2000/svg">
<use style="fill:#FFD779" xlink:href="#L10000002" />
</g>
<g filter="url(#filtreombre)" xmlns:xlink="http://www.w3.org/1999/xlink" xmlns:svg="http://www.w3.org/2000/svg">
<use style="fill:#FFD779" xlink:href="#L10000000" />
</g>
<g filter="url(#filtreombre)" xmlns:xlink="http://www.w3.org/1999/xlink" xmlns:svg="http://www.w3.org/2000/svg">
<use style="fill:#C9FA7E" xlink:href="#L10000007" />
</g>
<g filter="url(#filtreombre)" xmlns:xlink="http://www.w3.org/1999/xlink" xmlns:svg="http://www.w3.org/2000/svg">
<use style="fill:#DEFCBE" xlink:href="#L10000004" />
</g>
<g filter="url(#filtreombre)" xmlns:xlink="http://www.w3.org/1999/xlink" xmlns:svg="http://www.w3.org/2000/svg">
<use style="fill:#FCFF79" xlink:href="#L10000022" />
</g>
<g filter="url(#filtreombre)" xmlns:xlink="http://www.w3.org/1999/xlink" xmlns:svg="http://www.w3.org/2000/svg">
<use style="fill:#E1E82C" xlink:href="#L10000028" />
</g>

<text x="220" y="300" xmlns:xlink="http://www.w3.org/1999/xlink" xmlns:svg="http://www.w3.org/2000/svg" font-family="Arial" font-size="12" fill="black">Le Perrier</text>
<use x="232" y="314" xlink:href="#symb00005" xmlns:xlink="http://www.w3.org/1999/xlink" xmlns:svg="http://www.w3.org/2000/svg" />
<text x="100" y="335" xmlns:xlink="http://www.w3.org/1999/xlink" xmlns:svg="http://www.w3.org/2000/svg" font-family="Arial" font-size="12" fill="black">Saint Jean</text>
<text x="100" y="350" xmlns:xlink="http://www.w3.org/1999/xlink" xmlns:svg="http://www.w3.org/2000/svg" font-family="Arial" font-size="12" fill="black">de Monts</text>
<use x="139" y="371" xlink:href="#symb00005" xmlns:xlink="http://www.w3.org/1999/xlink" xmlns:svg="http://www.w3.org/2000/svg" />
<text x="30" y="210" xmlns:xlink="http://www.w3.org/1999/xlink" xmlns:svg="http://www.w3.org/2000/svg" font-family="Arial" font-size="12" fill="black">La Barre</text>
<text x="30" y="225" xmlns:xlink="http://www.w3.org/1999/xlink" xmlns:svg="http://www.w3.org/2000/svg" font-family="Arial" font-size="12" fill="black">de Monts</text>
<use x="57" y="188" xlink:href="#symb00005" xmlns:xlink="http://www.w3.org/1999/xlink" xmlns:svg="http://www.w3.org/2000/svg" />
<text x="27" y="265" xmlns:xlink="http://www.w3.org/1999/xlink" xmlns:svg="http://www.w3.org/2000/svg" font-family="Arial" font-size="12" fill="black">Notre Dame</text>
<text x="27" y="280" xmlns:xlink="http://www.w3.org/1999/xlink" xmlns:svg="http://www.w3.org/2000/svg" font-family="Arial" font-size="12" fill="black">de Monts</text>
<use x="41" y="295" xlink:href="#symb00005" xmlns:xlink="http://www.w3.org/1999/xlink" xmlns:svg="http://www.w3.org/2000/svg" />
<text x="258" y="220" xmlns:xlink="http://www.w3.org/1999/xlink" xmlns:svg="http://www.w3.org/2000/svg" font-family="Arial" font-size="12" fill="black">Sallertaine</text>
<use x="278" y="235" xlink:href="#symb00005" xmlns:xlink="http://www.w3.org/1999/xlink" xmlns:svg="http://www.w3.org/2000/svg" />
<text x="173" y="195" xmlns:xlink="http://www.w3.org/1999/xlink" xmlns:svg="http://www.w3.org/2000/svg" font-family="Arial" font-size="12" fill="black">Saint</text>
<text x="165" y="210" xmlns:xlink="http://www.w3.org/1999/xlink" xmlns:svg="http://www.w3.org/2000/svg" font-family="Arial" font-size="12" fill="black">Urbain</text>
<use x="212" y="203" xlink:href="#symb00005" xmlns:xlink="http://www.w3.org/1999/xlink" xmlns:svg="http://www.w3.org/2000/svg" />
<text x="105" y="140" xmlns:xlink="http://www.w3.org/1999/xlink" xmlns:svg="http://www.w3.org/2000/svg" font-family="Arial" font-size="12" fill="black">Beauvoir</text>
<text x="105" y="155" xmlns:xlink="http://www.w3.org/1999/xlink" xmlns:svg="http://www.w3.org/2000/svg" font-family="Arial" font-size="12" fill="black">Sur Mer</text>
<use x="161" y="123" xlink:href="#symb00005" xmlns:xlink="http://www.w3.org/1999/xlink" xmlns:svg="http://www.w3.org/2000/svg" />
<text x="153" y="60" xmlns:xlink="http://www.w3.org/1999/xlink" xmlns:svg="http://www.w3.org/2000/svg" font-family="Arial" font-size="12" fill="black">Bouin</text>
<use x="190" y="43" xlink:href="#symb00005" xmlns:xlink="http://www.w3.org/1999/xlink" xmlns:svg="http://www.w3.org/2000/svg" />
<text x="220" y="100" xmlns:xlink="http://www.w3.org/1999/xlink" xmlns:svg="http://www.w3.org/2000/svg" font-family="Arial" font-size="12" fill="black">Saint</text>
<text x="220" y="115" xmlns:xlink="http://www.w3.org/1999/xlink" xmlns:svg="http://www.w3.org/2000/svg" font-family="Arial" font-size="12" fill="black">Gervais</text>
<use x="221" y="149" xlink:href="#symb00005" xmlns:xlink="http://www.w3.org/1999/xlink" xmlns:svg="http://www.w3.org/2000/svg" />
<text x="250" y="490" xmlns:xlink="http://www.w3.org/1999/xlink" xmlns:svg="http://www.w3.org/2000/svg" font-family="Arial" font-size="12" fill="black">Saint Hilaire</text>
<text x="250" y="505" xmlns:xlink="http://www.w3.org/1999/xlink" xmlns:svg="http://www.w3.org/2000/svg" font-family="Arial" font-size="12" fill="black">de Riez</text>
<use x="302" y="516" xlink:href="#symb00005" xmlns:xlink="http://www.w3.org/1999/xlink" xmlns:svg="http://www.w3.org/2000/svg" />
<text x="339" y="532" xmlns:xlink="http://www.w3.org/1999/xlink" xmlns:svg="http://www.w3.org/2000/svg" font-family="Arial" font-size="12" fill="black">Le Fenouiller</text>
<use x="360" y="517" xlink:href="#symb00005" xmlns:xlink="http://www.w3.org/1999/xlink" xmlns:svg="http://www.w3.org/2000/svg" />
<text x="300" y="365" xmlns:xlink="http://www.w3.org/1999/xlink" xmlns:svg="http://www.w3.org/2000/svg" font-family="Arial" font-size="12" fill="black">Soullans</text>
<use x="363" y="362" xlink:href="#symb00005" xmlns:xlink="http://www.w3.org/1999/xlink" xmlns:svg="http://www.w3.org/2000/svg" />
<text x="397" y="280" xmlns:xlink="http://www.w3.org/1999/xlink" xmlns:svg="http://www.w3.org/2000/svg" font-family="Arial" font-size="12" fill="black">Challans</text>
<use x="387" y="261" xlink:href="#symb00005" xmlns:xlink="http://www.w3.org/1999/xlink" xmlns:svg="http://www.w3.org/2000/svg" />
<text x="322" y="578" xmlns:xlink="http://www.w3.org/1999/xlink" xmlns:svg="http://www.w3.org/2000/svg" font-family="Arial" font-size="12" fill="black">Croix</text>
<text x="322" y="593" xmlns:xlink="http://www.w3.org/1999/xlink" xmlns:svg="http://www.w3.org/2000/svg" font-family="Arial" font-size="12" fill="black">de Vie</text>
<use x="310" y="563" xlink:href="#symb00005" xmlns:xlink="http://www.w3.org/1999/xlink" xmlns:svg="http://www.w3.org/2000/svg" />

<!-- Légende -->
<text x="10" y="590" xmlns:xlink="http://www.w3.org/1999/xlink" xmlns:svg="http://www.w3.org/2000/svg" font-family="Arial" font-size="20" fill="#444444">Communes de naissance</text>

</svg>


